<?xml version="1.0" encoding="UTF-8"?>
<svg version="1.1" xmlns="http://www.w3.org/2000/svg" width="500" height="500">
<path d="M0 0 C1.01602757 -0.00226556 2.03205514 -0.00453111 3.07887143 -0.00686532 C6.46398491 -0.01316652 9.84905796 -0.01237846 13.23417664 -0.0115509 C15.66920523 -0.0145448 18.10423336 -0.01794786 20.53926086 -0.02172852 C26.45565306 -0.02963367 32.37203587 -0.03278213 38.28843228 -0.03334089 C43.10075914 -0.03381729 47.91308273 -0.03587819 52.72540855 -0.03904152 C66.39049349 -0.04784037 80.05557061 -0.05246204 93.7206584 -0.05171105 C94.45617899 -0.05167109 95.19169958 -0.05163113 95.94950867 -0.05158997 C96.68593451 -0.05154909 97.42236035 -0.0515082 98.18110212 -0.05146609 C110.11287783 -0.05105973 122.04462197 -0.06062871 133.97638855 -0.07472833 C146.24866834 -0.08911512 158.52093275 -0.09599727 170.79322118 -0.09513456 C177.67482697 -0.0948034 184.55639965 -0.09751456 191.43799782 -0.10831261 C197.91162931 -0.11840603 204.38520905 -0.11805879 210.85884476 -0.11079597 C213.22910985 -0.1097527 215.59937934 -0.11209771 217.96963692 -0.11815643 C238.06485945 -0.1661793 254.94978298 -0.06646769 270.35404968 14.71965027 C279.36861641 24.65013554 282.03204446 36.16075978 281.8860321 49.29655457 C281.88647018 50.35154648 281.88690826 51.40653839 281.88735962 52.49349976 C281.88528906 55.94017302 281.86204012 59.38634446 281.83842468 62.83293152 C281.83282257 65.2385939 281.82855538 67.64425972 281.82556152 70.04992676 C281.81416127 76.35128899 281.78473574 82.65244053 281.75144958 88.95372009 C281.72064448 95.39585013 281.70703394 101.83801453 281.69194031 108.28019714 C281.6598613 120.89812506 281.60930836 133.51590765 281.54545593 146.13371277 C278.21718284 147.79784932 274.5481162 146.95238683 270.92045593 146.69621277 C270.11865906 146.64400574 269.31686218 146.59179871 268.49076843 146.53800964 C266.5086649 146.40822906 264.52701095 146.27161542 262.54545593 146.13371277 C262.54398937 145.58448402 262.54252281 145.03525528 262.54101181 144.46938324 C262.50389553 131.08072128 262.44456645 117.69231462 262.36155319 104.3038559 C262.32207452 97.82916258 262.2898877 91.35460536 262.27445984 84.87980652 C262.25929621 78.62915324 262.22485485 72.37887409 262.17714691 66.12838745 C262.16233028 63.74586238 262.15441476 61.36328389 262.15357208 58.98071289 C262.15120165 55.6387308 262.12411371 52.29778196 262.09135437 48.95597839 C262.09638474 47.97486084 262.1014151 46.99374329 262.1065979 45.9828949 C261.99739675 38.7639994 260.34591517 33.52184868 255.72123718 27.92668152 C255.10635437 27.39687683 254.49147156 26.86707214 253.85795593 26.32121277 C252.95496765 25.5071698 252.95496765 25.5071698 252.03373718 24.67668152 C245.04886537 20.34540308 237.9000799 19.69558902 229.84967041 19.74603271 C228.80773039 19.74064718 227.76579038 19.73526164 226.69227642 19.7297129 C223.2194675 19.71546626 219.74704152 19.72252908 216.2742157 19.72966003 C213.77682693 19.72395478 211.27944077 19.71698993 208.78205872 19.7088623 C202.71388996 19.69279369 196.64587027 19.69082666 190.57769484 19.69607521 C185.64329731 19.70012475 180.70893031 19.69866407 175.77453423 19.69332695 C174.71911851 19.69220432 174.71911851 19.69220432 173.64238126 19.691059 C172.21277737 19.68952745 170.78317349 19.6879891 169.35356962 19.68644404 C155.96252824 19.67273227 142.57154536 19.67814748 129.18050533 19.68962925 C116.94340713 19.6995614 104.70646015 19.68661897 92.46938527 19.66269506 C79.88747827 19.63828333 67.30564163 19.6287012 54.72371143 19.63534778 C47.66663937 19.63883526 40.60968357 19.63663916 33.55262947 19.61909676 C26.91642886 19.60280431 20.28046966 19.60758862 13.64426041 19.6264019 C11.21187965 19.6300864 8.77947749 19.62698343 6.34711647 19.61651611 C3.02048782 19.60329576 -0.30518681 19.61486414 -3.6317749 19.63250732 C-4.58869923 19.62290232 -5.54562355 19.61329731 -6.53154558 19.60340124 C-14.01630591 19.68478335 -20.84898455 21.34306833 -26.85688782 25.99308777 C-27.36348938 26.61699402 -27.87009094 27.24090027 -28.39204407 27.88371277 C-28.9166925 28.49730652 -29.44134094 29.11090027 -29.98188782 29.74308777 C-33.62765701 35.66141866 -34.90149422 41.24951572 -34.84895325 48.12770081 C-34.85504435 48.89110484 -34.86113545 49.65450887 -34.86741114 50.44104636 C-34.88394645 52.97726591 -34.87927906 55.51297817 -34.87446594 58.04924011 C-34.88181178 59.87654131 -34.8903995 61.70383788 -34.90013123 63.53112793 C-34.92230148 68.47955622 -34.92528016 73.42781776 -34.92338371 78.37628889 C-34.92326381 82.51383421 -34.93183612 86.65134446 -34.94016123 90.78887999 C-34.95937906 100.55358775 -34.96228498 110.31821003 -34.95552063 120.08293152 C-34.94888048 130.14184981 -34.97174697 140.20040135 -35.00883436 150.25924528 C-35.03956476 158.90919425 -35.05088778 167.55902544 -35.04699755 176.20902789 C-35.04493356 181.36922996 -35.05035532 186.52914655 -35.07489014 191.68929672 C-35.09720997 196.54369946 -35.09523592 201.39750722 -35.07496262 206.25191307 C-35.07156186 208.02798745 -35.07660118 209.80410229 -35.0909462 211.58012199 C-35.1682021 221.85846382 -35.09227102 231.05763683 -27.69913483 239.02560997 C-21.90682844 244.55330573 -15.59844194 246.58808745 -7.70333862 246.53244019 C-6.57955737 246.54241043 -6.57955737 246.54241043 -5.43307346 246.55258209 C-2.93951992 246.57113489 -0.44644947 246.56861208 2.04716492 246.56608582 C3.84128493 246.5751077 5.63539877 246.58543597 7.42950439 246.5969696 C12.2884554 246.62451555 17.14728936 246.63382088 22.00630832 246.63982368 C27.08858284 246.64921357 32.17077016 246.67541749 37.25299072 246.6998291 C46.87171701 246.74348079 56.49042635 246.77203596 66.10922152 246.79515249 C77.06206728 246.82221125 88.01482527 246.86612238 98.96760833 246.91144121 C121.49350992 247.00426845 144.01943904 247.07595802 166.54545593 247.13371277 C166.73927704 250.11259403 166.92580695 253.09161523 167.10795593 256.07121277 C167.16403015 256.92134949 167.22010437 257.77148621 167.27787781 258.64738464 C167.32621765 259.45627136 167.3745575 260.26515808 167.42436218 261.09855652 C167.47149353 261.84742126 167.51862488 262.59628601 167.56718445 263.36784363 C167.54545593 265.13371277 167.54545593 265.13371277 166.54545593 266.13371277 C164.17961347 266.24021694 161.84261643 266.28149885 159.47590637 266.28088379 C158.72735598 266.28456048 157.9788056 266.28823717 157.20757186 266.29202527 C154.67973087 266.3031064 152.15193092 266.30691352 149.62406921 266.31071472 C147.81913114 266.31697639 146.01419437 266.32362292 144.20925903 266.33062744 C139.28931958 266.3480731 134.36938988 266.35860043 129.44942713 266.36683297 C126.37469341 266.37197908 123.29996274 266.37805521 120.22523117 266.3843441 C110.6031542 266.40341222 100.98108494 266.41763588 91.3589927 266.42595607 C80.25720297 266.43571392 69.1556134 266.46198865 58.05389416 266.50245696 C49.47287966 266.53266051 40.89192235 266.54742925 32.31085575 266.55073708 C27.18686933 266.55308414 22.06309633 266.5619987 16.93916702 266.58719826 C12.11121246 266.61055591 7.28361061 266.61468133 2.45561409 266.60443687 C0.68963381 266.60394315 -1.07636427 266.61021501 -2.84229088 266.62399292 C-18.41277404 266.73860987 -30.00031925 263.90789685 -41.68110657 253.06730652 C-61.47851732 232.3430507 -55.5955736 196.33225152 -55.45280361 169.85436296 C-55.43879667 167.21218679 -55.42620786 164.57000743 -55.41405487 161.92782211 C-55.37126395 152.6785416 -55.32207942 143.4293178 -55.26753235 134.18009949 C-55.21715549 125.60489508 -55.18200037 117.02971576 -55.15359855 108.45441306 C-55.12829915 101.0431686 -55.09166286 93.63203362 -55.04651284 86.22088373 C-55.01989681 81.81536971 -54.99780568 77.40995277 -54.98749542 73.00436783 C-54.97747349 68.86555795 -54.95322044 64.72706109 -54.91856194 60.58838654 C-54.90827946 59.08169755 -54.90285232 57.57496519 -54.90299416 56.06824112 C-54.89826413 39.78423317 -52.84277693 25.36986421 -41.53266907 13.05168152 C-29.32696924 1.78664653 -15.88667213 -0.02632807 0 0 Z " fill="#ff6b35" transform="translate(136.4545440673828,116.86628723144531)"/>
<path d="M0 0 C3.40518962 3.02683522 4.66860564 6.01371233 5.14306641 10.52880859 C4.82857215 15.96107975 2.21668298 20.88984042 0.0625 25.8125 C-0.43805908 26.99779297 -0.93861816 28.18308594 -1.4543457 29.40429688 C-2.95234672 32.94385313 -4.4736047 36.47261165 -6 40 C-7.21691134 42.8414245 -8.42981638 45.68444356 -9.63696289 48.5300293 C-10.32172759 50.14001406 -11.01330455 51.7471236 -11.71264648 53.35083008 C-13.51018585 57.52223963 -13.51018585 57.52223963 -14 62 C-13.20940186 62.44802979 -12.41880371 62.89605957 -11.60424805 63.35766602 C-8.61531531 65.05330845 -5.62787971 66.75153422 -2.64135742 68.45141602 C-1.35905236 69.18061386 -0.07619231 69.9088368 1.20727539 70.63598633 C24.959776 84.09604631 24.959776 84.09604631 28 89 C28.66873766 92.47743582 28.77567713 94.79168447 26.81640625 97.84375 C24.96987571 100.00467782 23.01886242 101.99860179 21 104 C20.13117188 104.89332031 19.26234375 105.78664063 18.3671875 106.70703125 C13.76415793 111.41452789 9.03890415 115.91774431 4.02734375 120.19140625 C0.6839383 123.1740589 -2.4107637 126.40356692 -5.55859375 129.58984375 C-8.27202727 132.26854532 -11.10777023 134.74608118 -14.00390625 137.22265625 C-17.06392551 139.94733093 -19.89706844 142.88878072 -22.7734375 145.8046875 C-25.44035439 148.43417398 -28.24134268 150.86657156 -31.08203125 153.3046875 C-34.74728959 156.54444742 -38.14406392 160.06337104 -41.52734375 163.59375 C-44.91267598 166.82642799 -47.97257641 168.0177142 -52.625 167.9375 C-56.29107167 166.91914676 -57.67474708 165.95128255 -60 163 C-61.71490316 159.57019368 -61.47459829 156.47098616 -60.30422974 152.84350586 C-59.28816085 150.27638681 -58.2063542 147.74724853 -57.09765625 145.21875 C-56.70049911 144.28703979 -56.30334198 143.35532959 -55.89414978 142.39538574 C-54.62706169 139.42579424 -53.34595163 136.46255196 -52.0625 133.5 C-50.78409335 130.53686954 -49.50893896 127.57247991 -48.24156189 124.60461426 C-47.45371253 122.76080182 -46.65936265 120.91974973 -45.85768127 119.08190918 C-43.98740297 114.71596609 -42.49536027 110.7749802 -42 106 C-43.01815796 105.43454468 -43.01815796 105.43454468 -44.05688477 104.85766602 C-51.71915869 100.59753251 -59.36710097 96.31255251 -67 92 C-67.86592773 91.51096191 -68.73185547 91.02192383 -69.62402344 90.51806641 C-71.73651665 89.31687109 -73.83910215 88.10060579 -75.9375 86.875 C-76.53828369 86.53412354 -77.13906738 86.19324707 -77.75805664 85.84204102 C-80.91421541 83.97083954 -82.86869079 82.55258686 -84 79 C-84.60901793 75.69296717 -84.21086378 73.13203741 -83 70 C-79.69643234 65.89643948 -75.94900661 62.47597621 -72 59 C-70.95005859 58.07574219 -70.95005859 58.07574219 -69.87890625 57.1328125 C-68.62238423 56.04086613 -67.36060459 54.95494162 -66.09375 53.875 C-62.95479653 51.06399689 -60.02649319 48.04732203 -57.06860352 45.04907227 C-53.84633552 41.79999393 -50.50659355 38.77556137 -47.02734375 35.80859375 C-43.68256946 32.82471996 -40.58664843 29.59380268 -37.4375 26.40625 C-34.74762407 23.75085966 -31.93666358 21.29880786 -29.0625 18.84765625 C-26.60056893 16.64217633 -24.310522 14.30085406 -22 11.9375 C-8.85550763 -1.32832614 -8.85550763 -1.32832614 0 0 Z " fill="#ff6b35" transform="translate(386,255)"/>
<path d="M0 0 C4.84759231 2.92383433 9.14195291 6.46348655 13.5 10.0625 C18.6255827 14.26302358 23.77415767 18.4248226 29 22.5 C34.07270087 26.458898 39.07951256 30.49133871 44.0625 34.5625 C50.94535459 40.17619917 57.90779707 45.65270414 65 51 C65.87140625 51.69351563 66.7428125 52.38703125 67.640625 53.1015625 C74.13543333 58.06457641 80.12815405 60.31817884 88.37890625 59.87109375 C98.95827836 58.12319749 107.06618561 49.60021026 115 43 C119.92037527 39.01307213 124.88664869 35.08543188 129.87402344 31.18286133 C135.65315413 26.65995829 141.37931517 22.08049558 147.0625 17.4375 C168.79913227 -0.30319539 168.79913227 -0.30319539 174.4375 0.1875 C177.2950055 0.568807 178.70863726 0.78809982 181.0625 2.5 C182.54216395 6.44577053 182.9620129 9.86404671 182 14 C180.09618418 16.87648184 177.69073488 18.8694181 175 21 C174.34773437 21.52851563 173.69546875 22.05703125 173.0234375 22.6015625 C170.70579007 24.4331116 168.35307007 26.2141879 166 28 C163.80870166 29.70373446 161.62075997 31.4110389 159.4375 33.125 C158.84638428 33.58874023 158.25526855 34.05248047 157.64624023 34.53027344 C153.05922342 38.14040863 148.52320064 41.8103653 144 45.5 C137.29230356 50.96986114 130.52863975 56.35993804 123.69677734 61.67382812 C121.96352489 63.02850832 120.24107971 64.39611268 118.51953125 65.765625 C105.47419534 76.08032562 93.74933049 80.56226563 77 79 C63.06833094 76.50202324 52.36626589 66.52799319 41.984375 57.55859375 C38.09586946 54.22486191 34.07592536 51.09933093 30 48 C21.4607146 41.49994693 13.064675 34.85373688 4.7578125 28.05859375 C0.8588425 24.87237041 -3.09785477 21.76258728 -7.08203125 18.68359375 C-10.41757047 15.75565606 -11.91151882 13.99098927 -12.3125 9.5 C-11.8680203 4.52182741 -11.8680203 4.52182741 -10 2 C-6.7677285 -0.30876536 -3.89035463 -0.46684256 0 0 Z " fill="#ff6b35" transform="translate(165,188)"/>
<path d="M0 0 C0 3 0 3 -1.62060547 4.99291992 C-2.73266357 6.10050659 -2.73266357 6.10050659 -3.8671875 7.23046875 C-4.67027344 8.03291016 -5.47335937 8.83535156 -6.30078125 9.66210938 C-7.15027344 10.49548828 -7.99976563 11.32886719 -8.875 12.1875 C-9.71675781 13.03248047 -10.55851562 13.87746094 -11.42578125 14.74804688 C-17.73324001 21 -17.73324001 21 -20 21 C-16.46003707 12.74629697 -7.68021782 6.72590099 -1 1 C-0.67 0.67 -0.34 0.34 0 0 Z " fill="#ff6b35" transform="translate(323,306)"/>
<path d="M0 0 C0.66 0.33 1.32 0.66 2 1 C-1.63 4.63 -5.26 8.26 -9 12 C-9.66 11.67 -10.32 11.34 -11 11 C-9.92173635 9.72486237 -8.83714481 8.45507431 -7.75 7.1875 C-7.14671875 6.47980469 -6.5434375 5.77210938 -5.921875 5.04296875 C-4.07629602 3.08110329 -2.20054668 1.54330375 0 0 Z " fill="#5C5C5A" transform="translate(101,125)"/>
<path d="M0 0 C0.33 0 0.66 0 1 0 C1 3.63 1 7.26 1 11 C0.67 11 0.34 11 0 11 C0 7.37 0 3.74 0 0 Z " fill="#ff6b35" transform="translate(419,252)"/>
<path d="" fill="#ff6b35" transform="translate(0,0)"/>
<path d="" fill="#ff6b35" transform="translate(0,0)"/>
<path d="" fill="#ff6b35" transform="translate(0,0)"/>
<path d="" fill="#ff6b35" transform="translate(0,0)"/>
<path d="" fill="#ff6b35" transform="translate(0,0)"/>
<path d="" fill="#ff6b35" transform="translate(0,0)"/>
<path d="" fill="#ff6b35" transform="translate(0,0)"/>
<path d="" fill="#ff6b35" transform="translate(0,0)"/>
<path d="" fill="#ff6b35" transform="translate(0,0)"/>
<path d="" fill="#ff6b35" transform="translate(0,0)"/>
<path d="" fill="#ff6b35" transform="translate(0,0)"/>
<path d="" fill="#ff6b35" transform="translate(0,0)"/>
<path d="" fill="#ff6b35" transform="translate(0,0)"/>
<path d="" fill="#ff6b35" transform="translate(0,0)"/>
<path d="" fill="#ff6b35" transform="translate(0,0)"/>
<path d="" fill="#ff6b35" transform="translate(0,0)"/>
<path d="" fill="#ff6b35" transform="translate(0,0)"/>
<path d="" fill="#ff6b35" transform="translate(0,0)"/>
<path d="" fill="#ff6b35" transform="translate(0,0)"/>
<path d="" fill="#ff6b35" transform="translate(0,0)"/>
<path d="" fill="#ff6b35" transform="translate(0,0)"/>
<path d="" fill="#ff6b35" transform="translate(0,0)"/>
<path d="" fill="#ff6b35" transform="translate(0,0)"/>
<path d="" fill="#ff6b35" transform="translate(0,0)"/>
<path d="" fill="#ff6b35" transform="translate(0,0)"/>
<path d="" fill="#ff6b35" transform="translate(0,0)"/>
<path d="" fill="#ff6b35" transform="translate(0,0)"/>
<path d="" fill="#ff6b35" transform="translate(0,0)"/>
<path d="" fill="#ff6b35" transform="translate(0,0)"/>
<path d="" fill="#ff6b35" transform="translate(0,0)"/>
<path d="" fill="#ff6b35" transform="translate(0,0)"/>
<path d="" fill="#ff6b35" transform="translate(0,0)"/>
<path d="" fill="#ff6b35" transform="translate(0,0)"/>
<path d="" fill="#ff6b35" transform="translate(0,0)"/>
<path d="" fill="#ff6b35" transform="translate(0,0)"/>
<path d="" fill="#ff6b35" transform="translate(0,0)"/>
<path d="" fill="#ff6b35" transform="translate(0,0)"/>
<path d="" fill="#ff6b35" transform="translate(0,0)"/>
<path d="" fill="#ff6b35" transform="translate(0,0)"/>
<path d="" fill="#ff6b35" transform="translate(0,0)"/>
<path d="" fill="#ff6b35" transform="translate(0,0)"/>
<path d="" fill="#ff6b35" transform="translate(0,0)"/>
<path d="" fill="#ff6b35" transform="translate(0,0)"/>
<path d="" fill="#ff6b35" transform="translate(0,0)"/>
<path d="" fill="#ff6b35" transform="translate(0,0)"/>
<path d="" fill="#ff6b35" transform="translate(0,0)"/>
<path d="" fill="#ff6b35" transform="translate(0,0)"/>
<path d="" fill="#ff6b35" transform="translate(0,0)"/>
<path d="" fill="#ff6b35" transform="translate(0,0)"/>
<path d="" fill="#ff6b35" transform="translate(0,0)"/>
<path d="" fill="#ff6b35" transform="translate(0,0)"/>
<path d="" fill="#ff6b35" transform="translate(0,0)"/>
<path d="" fill="#ff6b35" transform="translate(0,0)"/>
<path d="" fill="#ff6b35" transform="translate(0,0)"/>
<path d="" fill="#ff6b35" transform="translate(0,0)"/>
<path d="" fill="#ff6b35" transform="translate(0,0)"/>
<path d="" fill="#ff6b35" transform="translate(0,0)"/>
<path d="" fill="#ff6b35" transform="translate(0,0)"/>
<path d="" fill="#ff6b35" transform="translate(0,0)"/>
<path d="" fill="#ff6b35" transform="translate(0,0)"/>
<path d="" fill="#ff6b35" transform="translate(0,0)"/>
<path d="" fill="#ff6b35" transform="translate(0,0)"/>
<path d="" fill="#ff6b35" transform="translate(0,0)"/>
<path d="" fill="#ff6b35" transform="translate(0,0)"/>
<path d="" fill="#ff6b35" transform="translate(0,0)"/>
<path d="" fill="#ff6b35" transform="translate(0,0)"/>
<path d="" fill="#ff6b35" transform="translate(0,0)"/>
<path d="" fill="#ff6b35" transform="translate(0,0)"/>
<path d="" fill="#ff6b35" transform="translate(0,0)"/>
<path d="" fill="#ff6b35" transform="translate(0,0)"/>
</svg>
